# AST/ASF file generated using VICON BodyLanguage
# -----------------------------------------------
:version 1.10
:name VICON
:units
  mass 1.0
  length 0.45
  angle deg
:documentation
   .ast/.asf automatically generated from VICON data using
   VICON BodyBuilder and BodyLanguage model FoxedUp or BRILLIANT.MOD
:root
   order TX TY TZ RX RY RZ
   axis XYZ
   position 0 0 0  
   orientation 0 0 0 
:bonedata
  begin
     id 1 
     name lhipjoint
     direction 0.623415 -0.642378 0.445763 
     length 2.49859 
     axis 0 0 0  XYZ
  end
  begin
     id 2 
     name lfemur
     direction 0.34202 -0.939693 0  
     length 6.69689  
     axis 0 0 20  XYZ
    dof rx ry rz
    limits (-160.0 20.0)
           (-70.0 70.0)
           (-60.0 70.0)
  end
  begin
     id 3 
     name ltibia
     direction 0.34202 -0.939693 0   
     length 7.37574   
     axis 0 0 20   XYZ
    dof rx
    limits (-10.0 170.0)
  end
  begin
     id 4 
     name lfoot
     direction 0.084323 -0.231675 0.969132   
     length 2.09111   
     axis -90 7.62852e-016 20   XYZ
    dof rx rz
    limits (-45.0 90.0)
           (-70.0 20.0)
  end
  begin
     id 5 
     name ltoes
     direction 1.5357e-011 -4.21957e-011 1   
     length 1.04989   
     axis -90 7.62852e-016 20   XYZ
    dof rx
    limits (-90.0 20.0)
  end
  begin
     id 6 
     name rhipjoint
     direction -0.605402 -0.653903 0.45376   
     length 2.45455  
     axis 0 0 0  XYZ 
  end
  begin
     id 7 
     name rfemur
     direction -0.34202 -0.939693 0   
     length 6.64523   
     axis 0 0 -20   XYZ
    dof rx ry rz
    limits (-160.0 20.0)
           (-70.0 70.0)
           (-70.0 60.0)
  end
  begin
     id 8 
     name rtibia
     direction -0.34202 -0.939693 0   
     length 7.3339   
     axis 0 0 -20   XYZ
    dof rx
    limits (-10.0 170.0)
 end
 begin
     id 9 
     name rfoot
     direction -0.120854 -0.332043 0.93549   
     length 2.23135  
     axis -90 -7.62852e-016 -20   XYZ
    dof rx rz
    limits (-45.0 90.0)
           (-20.0 70.0)
  end
  begin
     id 10 
     name rtoes
     direction -1.53563e-011 -4.21914e-011 1   
     length 1.10614   
     axis -90 -7.62852e-016 -20   XYZ
    dof rx
    limits (-90.0 20.0)
  end
  begin
     id 11 
     name lowerback
     direction 0.0319682 0.998615 -0.0417941   
     length 2.02718   
     axis 0 0 0   XYZ
    dof rx ry rz
    limits (-20.0 45.0)
           (-30.0 30.0)
           (-30.0 30.0)
  end
  begin
     id 12 
     name upperback
     direction 7.63181e-005 0.995808 0.0914691   
     length 1.97539   
     axis 0 0 0   XYZ
    dof rx ry rz
    limits (-20.0 45.0)
           (-30.0 30.0)
           (-30.0 30.0)
  end
  begin
     id 13 
     name thorax
     direction -0.016423 0.993627 0.111514   
     length 2.00349   
     axis 0 0 0   XYZ
    dof rx ry rz
    limits (-20.0 45.0)
           (-30.0 30.0)
           (-30.0 30.0)
  end
  begin
     id 14 
     name lowerneck
     direction -0.174763 0.981668 -0.0760716   
     length 1.71436   
     axis 0 0 0   XYZ
    dof rx ry rz
    limits (-20.0 45.0)
           (-30.0 30.0)
           (-30.0 30.0)
  end
  begin
     id 15 
     name upperneck
     direction 0.345458 0.934587 -0.0848868   
     length 1.72805   
     axis 0 0 0   XYZ
    dof rx ry rz
    limits (-20.0 45.0)
           (-30.0 30.0)
           (-30.0 30.0)
  end
  begin
     id 16
     name head
     direction 0.13001 0.989848 -0.0574291  
     length 1.767  
     axis 0 0 0   XYZ
    dof rx ry rz
    limits (-20.0 45.0)
           (-30.0 30.0)
           (-30.0 30.0)
  end
  begin
     id 17 
     name lclavicle
     direction 0.952951 0.290122 0.0878234  
     length 3.54654  
     axis 0 0 0   XYZ
    dof ry rz
    limits (-20.0 10.0)
           (0.0 20.0)
  end
  begin
     id 18 
     name lhumerus
     direction 1 -4.48957e-011 -4.56525e-028   
     length 5.19807   
     axis 180 -30 -90   XYZ
    dof rx ry rz
    limits (-60.0 90.0)
           (-90.0 90.0)
           (-90.0 90.0)
  end
  begin
     id 19
     name lradius
     direction 1 -4.48979e-011 -2.0317e-027   
     length 3.0937   
     axis 180 -30 -90   XYZ
    dof rx
    limits (-10.0 170.0)
  end
  begin
     id 20
     name lwrist
     direction 1 -4.48953e-011 -3.05809e-027   
     length 1.54685   
     axis 8.48514e-016 90 90   XYZ
    dof ry
    limits (-180.0 0.0)
 end
  begin
     id 21 
     name lhand
     direction 1 -4.48952e-011 -6.11639e-027   
     length 0.672632   
     axis 3.9013e-015 90 90   XYZ
    dof rx rz
    limits (-90.0 90.0)
           (-45.0 45.0)
  end
  begin
     id 22 
     name lfingers
     direction 1 -4.48925e-011 -1.22426e-026   
     length 0.542293   
     axis 7.80276e-015 90 90   XYZ
    dof rx
    limits (0.0 90.0)
  end
  begin
     id 23
     name lthumb
     direction 0.707107 -6.3486e-011 0.707107   
     length 0.778628   
     axis -90 45 5.37419e-014   XYZ
    dof rx rz
    limits (-45.0 45.0)
           (-45.0 45.0)
  end
  begin
     id 24 
     name rclavicle
     direction -0.960732 0.273675 -0.0457849   
     length 3.52079  
     axis 0 0 0   XYZ 
    dof ry rz
    limits (-10.0 20.0)
           (-20.0 0.0)
  end
  begin
     id 25 
     name rhumerus
     direction -1 -4.48976e-011 -1.63613e-027  
     length 5.45222   
     axis 180 30 90   XYZ
    dof rx ry rz
    limits (-90.0 60.0)
           (-90.0 90.0)
           (-90.0 90.0)
  end
  begin
     id 26 
     name rradius
     direction -1 -4.48957e-011 -7.00033e-028   
     length 3.01284   
     axis 180 30 90   XYZ
    dof rx
    limits (-10.0 170.0)
  end
  begin
     id 27 
     name rwrist
     direction -1 -4.48983e-011 -3.05543e-027   
     length 1.50642   
     axis 8.48514e-016 -90 -90   XYZ
    dof ry
    limits (-180.0 0.0)
  end
  begin
     id 28
     name rhand
     direction -1 -4.48984e-011 -6.11072e-027   
     length 0.622296   
     axis 3.9013e-015 -90 -90   XYZ
    dof rx rz
    limits (-90.0 90.0)
           (-45.0 45.0)
  end
  begin
     id 29
     name rfingers
     direction -1 -4.48865e-011 -1.22637e-026   
     length 0.501711   
     axis 7.80276e-015 -90 -90   XYZ
    dof rx
    limits (0.0 90.0)
  end
  begin
     id 30
     name rthumb
     direction -0.707107 -6.34932e-011 0.707107   
     length 0.72036   
     axis -90 -45 -5.37419e-014   XYZ
    dof rx rz
    limits (-45.0 45.0)
           (-45.0 45.0)
  end
:hierarchy
  begin
    root lhipjoint rhipjoint lowerback
    lhipjoint lfemur
    lfemur ltibia
    ltibia lfoot
    lfoot ltoes
    rhipjoint rfemur
    rfemur rtibia
    rtibia rfoot
    rfoot rtoes
    lowerback upperback
    upperback thorax
    thorax lowerneck lclavicle rclavicle
    lowerneck upperneck
    upperneck head
    lclavicle lhumerus
    lhumerus lradius
    lradius lwrist
    lwrist lhand lthumb
    lhand lfingers
    rclavicle rhumerus
    rhumerus rradius
    rradius rwrist
    rwrist rhand rthumb
    rhand rfingers
  end

#!OML:ASF H:\Not Pregnant\Project 1\Capture day 1\Session 1\non-pregnant.ASF
:FULLY-SPECIFIED
:DEGREES
75
root 7.70941 15.8364 28.7164 -162.853 -9.10646 -175.501
lowerback -6.13689 2.2321 6.47473
upperback -4.8991 2.32851 0.135392
thorax -1.37601 0.846204 -3.36516
lowerneck 28.8846 -8.04902 -30.7586
upperneck -12.1338 -21.7905 42.3298
head 0.827107 -14.8859 23.1262
rclavicle 6.66053e-014 1.37161e-014
rhumerus -35.1332 -32.1901 -68.017
rradius 28.7421
rwrist 26.5733
rhand -26.1549 -23.5139
rfingers 7.12502
rthumb -179.604 126.507
lclavicle 6.66053e-014 1.37161e-014
lhumerus -47.8934 10.2521 73.4082
lradius 35.265
lwrist 36.308
lhand -41.8105 -11.4983
lfingers 7.12502
lthumb -14.7126 17.9596
rfemur -27.4266 -2.70872 29.4835
rtibia 30.8871
rfoot -22.4688 6.57628
rtoes -13.9982
lfemur -32.1606 -0.356421 -12.9779
ltibia 37.9999
lfoot -19.1948 9.72146
ltoes -31.0779
76
root 7.71923 15.8307 28.7209 -162.866 -9.13464 -175.351
lowerback -5.79963 2.19591 6.72642
upperback -4.98306 2.29486 0.22241
thorax -1.6501 0.810764 -3.429
lowerneck 28.8041 -8.11399 -30.6131
upperneck -12.4315 -21.6919 42.7031
head 0.83422 -14.8628 22.5976
rclavicle 7.33329e-015 -1.22998e-014
rhumerus -35.9651 -35.4869 -67.2423
rradius 29.3821
rwrist 23.2491
rhand -26.8843 -26.5242
rfingers 7.12502
rthumb -180.308 123.496
lclavicle 7.33329e-015 -1.22998e-014
lhumerus -47.8048 14.0744 71.735
lradius 35.2867
lwrist 38.8517
lhand -43.063 -11.8029
lfingers 7.12502
lthumb -15.919 17.5629
rfemur -27.4612 -2.95392 29.7341
rtibia 30.8693
rfoot -22.5309 6.91461
rtoes -13.7758
lfemur -32.5018 -0.753624 -12.674
ltibia 38.5941
lfoot -19.0107 10.1366
ltoes -31.532
77
root 7.72834 15.8256 28.7254 -162.888 -9.16118 -175.183
lowerback -5.43588 2.16586 7.00063
upperback -5.07368 2.273 0.316362
thorax -1.945 0.778672 -3.49804
lowerneck 28.6658 -8.143 -30.6776
upperneck -12.445 -21.716 42.7023
head 0.874173 -14.8598 22.5757
rclavicle -9.79306e-015 2.11333e-014
rhumerus -36.5501 -37.7472 -67.0179
rradius 30.1078
rwrist 18.2775
rhand -28.1755 -29.923
rfingers 7.12502
rthumb -181.555 120.103
lclavicle -9.79306e-015 2.11333e-014
lhumerus -47.9343 17.2895 70.5026
lradius 35.8681
lwrist 42.8478
lhand -44.4001 -12.5734
lfingers 7.12502
lthumb -17.2063 16.6848
rfemur -27.4741 -3.23741 30.0089
rtibia 30.821
rfoot -22.5893 7.31164
rtoes -13.5045
lfemur -32.8618 -1.17396 -12.3415
ltibia 39.2415
lfoot -18.7999 10.551
ltoes -31.9873
78
root 7.73646 15.821 28.7296 -162.927 -9.18518 -174.991
lowerback -5.05698 2.14302 7.30504
upperback -5.16242 2.26396 0.415081
thorax -2.24514 0.750982 -3.57841
lowerneck 28.5358 -8.16539 -30.7586
upperneck -12.4656 -21.744 42.7223
head 0.91879 -14.8628 22.5709
rclavicle -1.62833e-014 -1.58158e-014
rhumerus -36.8069 -39.1561 -67.296
rradius 30.8291
rwrist 11.9407
rhand -30.0169 -33.4478
rfingers 7.12502
rthumb -183.334 116.599
lclavicle -1.62833e-014 -1.58158e-014
lhumerus -48.1546 19.8544 69.7125
lradius 36.8184
lwrist 47.8661
lhand -45.7434 -13.8071
lfingers 7.12502
lthumb -18.4988 15.3333
rfemur -27.4555 -3.55655 30.3087
rtibia 30.7409
rfoot -22.6463 7.76208
rtoes -13.1884
lfemur -33.2344 -1.61135 -11.9804
ltibia 39.9444
lfoot -18.5573 10.9617
ltoes -32.4369
79
root 7.74368 15.8167 28.7335 -162.971 -9.205 -174.787
lowerback -4.68642 2.12216 7.62449
upperback -5.24686 2.25922 0.518072
thorax -2.53627 0.724246 -3.66189
lowerneck 28.3489 -8.15582 -31.0429
upperneck -12.2154 -21.8919 42.3618
head 0.998779 -14.8858 23.0659
rclavicle 3.73995e-014 1.78906e-015
rhumerus -36.7178 -39.8845 -67.9784
rradius 31.4818
rwrist 4.65909
rhand -32.241 -36.696
rfingers 7.12502
rthumb -185.481 113.395
lclavicle 3.73995e-014 1.78906e-015
lhumerus -48.3381 21.7705 69.3647
lradius 37.9715
lwrist 53.0724
lhand -47.178 -14.3713
lfingers 7.12502
lthumb -19.8784 14.6321
rfemur -27.4216 -3.90848 30.6243
rtibia 30.6349
rfoot -22.6983 8.26374
rtoes -12.8321
lfemur -33.63 -2.04953 -11.6043
ltibia 40.7019
lfoot -18.2734 11.3612
ltoes -32.917
80
root 7.74998 15.8129 28.7365 -163.021 -9.21717 -174.572
lowerback -4.30283 2.11018 7.96535
upperback -5.33383 2.27026 0.618397
thorax -2.83569 0.702933 -3.75966
lowerneck 28.2186 -8.17734 -31.1493
upperneck -12.2464 -21.9326 42.4027
head 1.057 -14.899 23.079
rclavicle 3.69615e-015 2.28602e-015
rhumerus -36.3523 -40.0441 -68.9447
rradius 32.0369
rwrist -3.20936
rhand -34.6362 -39.3065
rfingers 7.12502
rthumb -187.794 110.857
lclavicle 3.69615e-015 2.28602e-015
lhumerus -48.3466 22.941 69.5569
lradius 39.1008
lwrist 57.4965
lhand -48.9705 -13.1513
lfingers 7.12502
lthumb -21.6007 15.664
rfemur -27.368 -4.28957 30.9523
rtibia 30.5053
rfoot -22.748 8.81128
rtoes -12.453
lfemur -34.0471 -2.47943 -11.2173
ltibia 41.5141
lfoot -17.9542 11.7328
ltoes -33.4046
81
root 7.75551 15.8097 28.7388 -163.063 -9.22597 -174.361
lowerback -3.93576 2.09997 8.30952
upperback -5.42402 2.28489 0.711005
thorax -3.12931 0.681749 -3.86653
lowerneck 28.0843 -8.19423 -31.2635
upperneck -12.2613 -21.9741 42.4444
head 1.12197 -14.9131 23.0936
rclavicle -2.15557e-014 -3.0911e-014
rhumerus -35.7969 -39.7809 -70.0458
rradius 32.4396
rwrist -10.9982
rhand -36.7303 -41.2931
rfingers 7.12502
rthumb -189.814 108.956
lclavicle -2.15557e-014 -3.0911e-014
lhumerus -48.1055 23.3093 70.3162
lradius 40.0245
lwrist 60.4489
lhand -50.9009 -9.12784
lfingers 7.12502
lthumb -23.4535 19.4627
rfemur -27.3135 -4.69691 31.2783
rtibia 30.3577
rfoot -22.7905 9.3956
rtoes -12.0506
lfemur -34.5014 -2.89689 -10.8359
ltibia 42.3785
lfoot -17.6009 12.0658
ltoes -33.9021
82
root 7.76063 15.8073 28.74 -163.098 -9.23246 -174.155
lowerback -3.5714 2.09625 8.65911
upperback -5.51924 2.31108 0.790842
thorax -3.42549 0.664225 -3.9893
lowerneck 27.9468 -8.20838 -31.3759
upperneck -12.2622 -22.0168 42.4905
head 1.1923 -14.9291 23.1101
rclavicle 5.03174e-016 3.35946e-014
rhumerus -35.1202 -39.1169 -71.2329
rradius 32.6712
rwrist -18.3136
rhand -38.3177 -42.7044
rfingers 7.12502
rthumb -191.346 107.622
lclavicle 5.03174e-016 3.35946e-014
lhumerus -47.5844 22.8874 71.588
lradius 40.4597
lwrist 61.2966
lhand -52.183 -1.81401
lfingers 7.12502
lthumb -24.6829 26.614
rfemur -27.2525 -5.11909 31.6011
rtibia 30.191
rfoot -22.8238 10.001
rtoes -11.633
lfemur -34.9935 -3.29395 -10.4604
ltibia 43.2947
lfoot -17.2362 12.3364
ltoes -34.3328
83
root 7.76526 15.8058 28.7397 -163.123 -9.23347 -173.968
lowerback -3.22831 2.09621 8.99579
upperback -5.61886 2.34306 0.855091
thorax -3.71412 0.648554 -4.12043
lowerneck 27.8081 -8.21856 -31.49
upperneck -12.239 -22.0624 42.5348
head 1.27038 -14.9473 23.1246
rclavicle 2.75565e-014 -3.97569e-015
rhumerus -34.379 -38.0962 -72.4546
rradius 32.6428
rwrist -24.5818
rhand -39.1129 -43.5919
rfingers 7.12502
rthumb -192.113 106.779
lclavicle 2.75565e-014 -3.97569e-015
lhumerus -46.8437 21.756 73.2524
lradius 40.3318
lwrist 60.0772
lhand -51.8657 7.85186
lfingers 7.12502
lthumb -24.3787 36.3211
rfemur -27.19 -5.57718 31.9082
rtibia 30.0096
rfoot -22.8512 10.6491
rtoes -11.1849
lfemur -35.5232 -3.67449 -10.1078
ltibia 44.2599
lfoot -16.8463 12.5498
ltoes -34.7594
84
root 7.7695 15.8054 28.7373 -163.142 -9.22137 -173.796
lowerback -2.90678 2.10649 9.32445
upperback -5.72038 2.38928 0.901774
thorax -3.99086 0.639179 -4.26474
lowerneck 27.6705 -8.22411 -31.602
upperneck -12.1988 -22.1082 42.5819
head 1.35306 -14.9673 23.1413
rclavicle -1.50704e-014 -9.93923e-015
rhumerus -33.6177 -36.6955 -73.7288
rradius 32.3672
rwrist -29.3937
rhand -38.8577 -44.1777
rfingers 7.12502
rthumb -191.866 106.179
lclavicle -1.50704e-014 -9.93923e-015
lhumerus -45.9938 20.0193 75.1518
lradius 39.7643
lwrist 57.5845
lhand -49.4866 16.6124
lfingers 7.12502
lthumb -22.0962 45.3699
rfemur -27.1194 -6.05816 32.2012
rtibia 29.815
rfoot -22.8757 11.3324
rtoes -10.7114
lfemur -36.0829 -4.03299 -9.77617
ltibia 45.2726
lfoot -16.4271 12.7079
ltoes -35.1747
85
root 7.77364 15.8057 28.7329 -163.15 -9.1919 -173.642
lowerback -2.61602 2.12795 9.6344
upperback -5.81846 2.44952 0.931175
thorax -4.24483 0.637423 -4.41594
lowerneck 27.5214 -8.23433 -31.7065
upperneck -12.1337 -22.1598 42.6218
head 1.44454 -14.9889 23.1462
rclavicle 3.03271e-014 2.17669e-014
rhumerus -32.8439 -34.9089 -75.0884
rradius 31.8436
rwrist -32.4903
rhand -37.4746 -44.5288
rfingers 7.12502
rthumb -190.532 105.755
lclavicle 3.03271e-014 2.17669e-014
lhumerus -45.1449 17.8373 77.1276
lradius 39.0015
lwrist 54.8097
lhand -45.45 21.8785
lfingers 7.12502
lthumb -18.2166 51.0455
rfemur -27.0493 -6.56937 32.478
rtibia 29.616
rfoot -22.8977 12.0646
rtoes -10.1882
lfemur -36.6711 -4.36434 -9.47286
ltibia 46.328
lfoot -15.9685 12.8174
ltoes -35.6046
